<?xml version="1.0" encoding="utf-8"?>
<!-- Generator: Adobe Illustrator 27.4.0, SVG Export Plug-In . SVG Version: 6.00 Build 0)  -->
<svg version="1.1" xmlns="http://www.w3.org/2000/svg" xmlns:xlink="http://www.w3.org/1999/xlink" x="0px" y="0px"
	 viewBox="0 0 989.35 154.75" style="enable-background:new 0 0 989.35 154.75;" xml:space="preserve">
<style type="text/css">
	.st0{fill:#2CBDBD;}
	.st1{fill:none;stroke:#FFFFFF;stroke-width:2.5;stroke-linecap:round;stroke-miterlimit:10;}
	.st2{fill:none;stroke:#FFFFFF;stroke-width:8;stroke-linecap:round;stroke-miterlimit:10;}
	.st3{display:none;}
	.st4{display:inline;}
</style>
<g id="Layer_1">
	<g>
		<path class="st0" d="M331.49,137.67c-3.63,0-6.54-2.86-6.54-6.44V23.57c0-3.58,2.91-6.44,6.54-6.44h17.98
			c21.25,0,30.7,11.45,30.7,34.52c0,16.63-7.81,25.75-7.81,25.75c4.72,5.72,7.81,14.84,7.81,25.75c0,23.07-9.45,34.52-30.7,34.52
			H331.49z M343.11,34.84v33.62h6.36c8.9,0,12.53-4.83,12.53-16.81c0-11.98-3.63-16.81-12.53-16.81H343.11z M343.11,86.16v33.8h6.36
			c8.9,0,12.53-4.83,12.53-16.81c0-12.16-3.63-16.99-12.53-16.99H343.11z"/>
		<path class="st0" d="M389.07,23.39c0-3.58,2.91-6.44,6.36-6.44h5.09c3.63,0,6.54,2.86,6.54,6.44v81.37
			c0,9.48,2.91,15.02,11.81,15.02c9.26,0,11.81-6.44,11.81-15.02V23.39c0-3.58,2.91-6.44,6.36-6.44h5.09c3.63,0,6.54,2.86,6.54,6.44
			v81.37c0,20.03-8.72,32.73-29.79,32.73c-21.8,0-29.79-13.77-29.79-32.73V23.39z"/>
		<path class="st0" d="M468.64,137.67c-3.63,0-6.54-2.86-6.54-6.44V23.57c0-3.58,2.91-6.44,6.54-6.44h17.98
			c21.25,0,30.7,11.45,30.7,34.52c0,16.63-7.81,25.75-7.81,25.75c4.72,5.72,7.81,14.84,7.81,25.75c0,23.07-9.45,34.52-30.7,34.52
			H468.64z M480.26,34.84v33.62h6.36c8.9,0,12.53-4.83,12.53-16.81c0-11.98-3.63-16.81-12.53-16.81H480.26z M480.26,86.16v33.8h6.36
			c8.9,0,12.53-4.83,12.53-16.81c0-12.16-3.63-16.99-12.53-16.99H480.26z"/>
		<path class="st0" d="M535.12,137.67c-3.63,0-6.54-2.86-6.54-6.44V23.57c0-3.58,2.91-6.44,6.54-6.44h17.98
			c21.25,0,30.7,11.45,30.7,34.52c0,16.63-7.81,25.75-7.81,25.75c4.72,5.72,7.81,14.84,7.81,25.75c0,23.07-9.45,34.52-30.7,34.52
			H535.12z M546.75,34.84v33.62h6.36c8.9,0,12.53-4.83,12.53-16.81c0-11.98-3.63-16.81-12.53-16.81H546.75z M546.75,86.16v33.8h6.36
			c8.9,0,12.53-4.83,12.53-16.81c0-12.16-3.63-16.99-12.53-16.99H546.75z"/>
		<path class="st0" d="M644.48,131.23c0,3.58-2.91,6.44-6.54,6.44h-38.69c-3.63,0-6.54-2.86-6.54-6.44V23.57
			c0-3.58,2.91-6.44,6.54-6.44h5.27c3.45,0,6.36,2.86,6.36,6.44v96.39h27.07c3.63,0,6.54,2.86,6.54,6.44V131.23z"/>
		<path class="st0" d="M696.8,17.13c3.63,0,6.54,2.86,6.54,6.44v4.83c0,3.58-2.91,6.44-6.54,6.44H669v33.62h22.89
			c3.63,0,6.54,2.86,6.54,6.44v4.83c0,3.58-2.91,6.44-6.54,6.44H669v33.8h27.79c3.63,0,6.54,2.86,6.54,6.44v4.83
			c0,3.58-2.91,6.44-6.54,6.44h-39.24c-3.63,0-6.54-2.86-6.54-6.44V23.57c0-3.58,2.91-6.44,6.54-6.44H696.8z"/>
		<path class="st0" d="M741.38,137.76c-3.63,0-6.54-2.86-6.54-6.44V23.66c0-3.58,2.91-6.44,6.54-6.44h18.53
			c21.8,0,31.97,12.16,31.97,35.41v49.72c0,23.25-10.17,35.41-31.97,35.41H741.38z M752.82,34.93v85.13h7.09
			c9.63,0,13.62-5.72,13.62-17.7V52.63c0-11.98-4-17.7-13.62-17.7H752.82z"/>
		<path class="st0" d="M834.94,104.85h-18.53l-6.36,27.9c-0.73,2.68-3.63,5.01-6.36,5.01h-5.27c-4.36,0-7.27-3.58-6.36-7.69
			l8.72-37.91l16.53-69.93c0.73-2.68,3.63-5.01,6.36-5.01h4c2.73,0,5.81,2.33,6.36,5.01l25.07,107.66c0.91,4.11-2,7.87-6.36,7.87
			h-5.27c-2.72,0-5.63-2.33-6.36-5.01L834.94,104.85z M820.58,87.15h10.17c-2-8.58-1.63-13.41-5.09-28.61L820.58,87.15z"/>
		<path class="st0" d="M864,100.38c0-3.58,2.91-6.44,6.54-6.44h5.09c3.45,0,6.54,2.86,6.54,6.44v2.32c0,8.58,1.63,12.7,4.18,14.84
			c2,1.97,5.09,2.33,7.63,2.33c7.63,0,11.81-3.22,11.81-12.7c0-8.41-8.36-15.02-17.26-21.82v0.18C876.53,76.24,864,66.58,864,48.88
			c0-20.21,10.72-31.83,29.97-31.83c19.62,0,29.97,12.34,29.97,35.05v2.5c0,3.58-2.91,6.44-6.54,6.44h-5.09
			c-3.63,0-6.54-2.86-6.54-6.44v-2.5c0-11.8-3.82-17.17-11.81-17.17c-7.63,0-11.81,4.11-11.81,13.41c0,9.12,8.9,16.1,17.8,22.89
			h-0.18c11.99,9.12,24.16,18.24,24.16,35.59c0,20.03-10.72,30.76-29.97,30.76c-19.98,0-29.97-11.45-29.97-34.87V100.38z"/>
		<path class="st0" d="M971,68.73V23.66c0-3.58,2.91-6.44,6.54-6.44h5.09c3.63,0,6.54,2.86,6.54,6.44v107.66
			c0,3.58-2.91,6.44-6.54,6.44h-5.09c-3.63,0-6.54-2.86-6.54-6.44V86.43h-20.16v44.89c0,3.58-2.91,6.44-6.54,6.44h-5.09
			c-3.63,0-6.54-2.86-6.54-6.44V23.66c0-3.58,2.91-6.44,6.54-6.44h5.09c3.63,0,6.54,2.86,6.54,6.44v45.07H971z"/>
	</g>
	<path class="st0" d="M252.09,22.78C240.63,8.8,224.8,0.15,207.32,0.15s-33.31,8.65-44.77,22.62c-2.07,2.53-3.99,5.22-5.76,8.08
		c8.2,0.39,14.73,7.05,14.73,15.23s-6.93,15.25-15.49,15.25h-10.65c-0.9,5.18-1.38,10.56-1.38,16.07s0.44,10.54,1.29,15.57h10.54
		c8.67,0,15.69,6.92,15.69,15.45s-6.55,14.96-14.79,15.42c1.78,2.89,3.73,5.62,5.82,8.18c11.46,13.98,27.29,22.62,44.77,22.62
		c34.97,0,63.32-34.58,63.32-77.24C270.64,56.06,263.55,36.75,252.09,22.78L252.09,22.78z"/>
	<path class="st0" d="M154.53,71.49"/>
	<path class="st0" d="M125.96,0.23h81.72c8.67,0,15.69,6.92,15.69,15.45l0,0c0,8.53-7.03,15.45-15.69,15.45h-81.72
		c-8.67,0-15.69-6.92-15.69-15.45l0,0C110.27,7.14,117.3,0.23,125.96,0.23z"/>
	<path class="st0" d="M92.68,61.4h98.5c8.67,0,15.69,6.92,15.69,15.45v0.68c0,8.53-7.03,15.45-15.69,15.45h-98.5
		c-8.67,0-15.69-6.92-15.69-15.45v-0.68C76.99,68.31,84.02,61.4,92.68,61.4z"/>
	<path class="st0" d="M127.34,123.49h79.02c8.67,0,15.69,6.92,15.69,15.45v0.25c0,8.53-7.03,15.45-15.69,15.45h-79.02
		c-8.67,0-15.69-6.92-15.69-15.45v-0.25C111.65,130.41,118.67,123.49,127.34,123.49z"/>
	<ellipse class="st0" cx="79.3" cy="15.74" rx="15.83" ry="15.58"/>
	<path class="st1" d="M91.91,16.76"/>
	<path class="st1" d="M78.14,3.21"/>
	<ellipse class="st0" cx="44.85" cy="78.07" rx="15.83" ry="15.58"/>
	<ellipse class="st0" cx="71.7" cy="139.07" rx="15.83" ry="15.58"/>
	<ellipse class="st0" cx="43.16" cy="16.07" rx="7.92" ry="7.79"/>
	<ellipse class="st0" cx="8.03" cy="78.41" rx="7.92" ry="7.79"/>
	<ellipse class="st0" cx="35.9" cy="138.39" rx="6.88" ry="6.78"/>
	<path class="st1" d="M43.65,10.69c2.81,0,5.1,2.34,5.1,5.21"/>
	<path class="st1" d="M57.63,78.69"/>
	<path class="st1" d="M45.71,65.81"/>
	<path class="st1" d="M8.33,73.1c2.81,0,5.1,2.34,5.1,5.21"/>
	<path class="st1" d="M91.56,16.26"/>
	<path class="st1" d="M79.64,3.39"/>
	<path class="st1" d="M75.18,127.47c5.9,1.72,8.72,5.8,9.24,11.6"/>
	<path class="st1" d="M35.79,133.76c2.47,0,4.49,2.08,4.49,4.64"/>
	<path class="st1" d="M252.75,117.08"/>
	<path class="st1" d="M183.74,34.76"/>
	<path class="st1" d="M47.97,66.29c5.9,1.72,8.72,5.8,9.24,11.6"/>
	<path class="st1" d="M82.32,3.98c5.9,1.72,8.72,5.8,9.24,11.6"/>
	<path class="st2" d="M223.9,15.67c22.74,9.57,33.63,32.21,35.62,64.42"/>
</g>
<g id="Layer_2" class="st3">
	<g class="st4">
		<path class="st0" d="M555.03-111.63c-9.62-11.93-22.92-19.3-37.6-19.3c-14.68,0-27.98,7.38-37.6,19.3
			c-1.74,2.16-3.35,4.46-4.84,6.89c6.89,0.33,12.37,6.02,12.37,12.99c0,6.97-5.82,13.01-13.01,13.01h-8.95
			c-0.76,4.42-1.16,9.01-1.16,13.71s0.37,8.99,1.08,13.28h8.85c7.28,0,13.18,5.9,13.18,13.18s-5.5,12.76-12.42,13.16
			c1.5,2.46,3.13,4.8,4.89,6.98c9.62,11.93,22.92,19.3,37.6,19.3c29.37,0,53.18-29.5,53.18-65.9
			C570.61-83.23,564.65-99.7,555.03-111.63L555.03-111.63z"/>
		<path class="st0" d="M449.1-130.87h68.63c7.28,0,13.18,5.9,13.18,13.18l0,0c0,7.28-5.9,13.18-13.18,13.18H449.1
			c-7.28,0-13.18-5.9-13.18-13.18l0,0C435.92-124.97,441.82-130.87,449.1-130.87z"/>
		<path class="st0" d="M421.15-78.68h82.72c7.28,0,13.18,5.9,13.18,13.18v0.58c0,7.28-5.9,13.18-13.18,13.18h-82.72
			c-7.28,0-13.18-5.9-13.18-13.18v-0.58C407.97-72.78,413.87-78.68,421.15-78.68z"/>
		<path class="st0" d="M450.25-25.71h66.37c7.28,0,13.18,5.9,13.18,13.18v0.21c0,7.28-5.9,13.18-13.18,13.18h-66.37
			c-7.28,0-13.18-5.9-13.18-13.18v-0.21C437.07-19.81,442.98-25.71,450.25-25.71z"/>
		<circle class="st0" cx="409.91" cy="-117.64" r="13.3"/>
		<circle class="st0" cx="380.98" cy="-64.45" r="13.3"/>
		<circle class="st0" cx="403.52" cy="-12.42" r="13.3"/>
		<circle class="st0" cx="379.56" cy="-117.35" r="6.65"/>
		<circle class="st0" cx="350.05" cy="-64.16" r="6.65"/>
		<circle class="st0" cx="373.46" cy="-13" r="5.78"/>
	</g>
</g>
</svg>
